<svg width="24" height="24" viewBox="0 0 24 24" fill="none" xmlns="http://www.w3.org/2000/svg">
<path d="M22.9421 6.80043L20.7601 4.61743L21.7071 3.67043C21.8026 3.57818 21.8788 3.46784 21.9312 3.34583C21.9836 3.22383 22.0112 3.09261 22.0124 2.95983C22.0135 2.82705 21.9882 2.69537 21.9379 2.57247C21.8876 2.44958 21.8134 2.33793 21.7195 2.24403C21.6256 2.15014 21.514 2.07589 21.3911 2.02561C21.2682 1.97533 21.1365 1.95002 21.0037 1.95118C20.8709 1.95233 20.7397 1.97992 20.6177 2.03233C20.4957 2.08474 20.3853 2.16092 20.2931 2.25643L19.3461 3.20343L17.1631 1.02143C16.475 0.365751 15.561 0 14.6106 0C13.6602 0 12.7462 0.365751 12.0581 1.02143C11.7227 1.35659 11.4566 1.75458 11.275 2.19264C11.0934 2.6307 11 3.10024 11 3.57443C11 4.04862 11.0934 4.51816 11.275 4.95622C11.4566 5.39428 11.7227 5.79226 12.0581 6.12743L14.2401 8.30943L8.3461 14.2034L6.1631 12.0214C5.47504 11.3658 4.56105 11 3.6106 11C2.66016 11 1.74617 11.3658 1.0581 12.0214C0.722662 12.3566 0.456559 12.7546 0.275003 13.1926C0.0934482 13.6307 0 14.1002 0 14.5744C0 15.0486 0.0934482 15.5182 0.275003 15.9562C0.456559 16.3943 0.722662 16.7923 1.0581 17.1274L3.2401 19.3094L2.2931 20.2564C2.19759 20.3487 2.12141 20.459 2.069 20.581C2.01659 20.703 1.98901 20.8342 1.98785 20.967C1.9867 21.0998 2.012 21.2315 2.06228 21.3544C2.11256 21.4773 2.18682 21.5889 2.28071 21.6828C2.3746 21.7767 2.48625 21.851 2.60915 21.9013C2.73205 21.9515 2.86373 21.9768 2.99651 21.9757C3.12928 21.9745 3.2605 21.9469 3.38251 21.8945C3.50451 21.8421 3.61486 21.7659 3.7071 21.6704L4.6541 20.7234L6.8371 22.9054C7.17225 23.2407 7.57017 23.5067 8.00814 23.6882C8.4461 23.8696 8.91553 23.963 9.3896 23.963C9.86368 23.963 10.3331 23.8696 10.7711 23.6882C11.209 23.5067 11.607 23.2407 11.9421 22.9054C12.2775 22.5703 12.5436 22.1724 12.7251 21.7345C12.9067 21.2965 13.0001 20.827 13.0001 20.3529C13.0001 19.8788 12.9067 19.4094 12.7251 18.9714C12.5436 18.5334 12.2775 18.1355 11.9421 17.8004L9.7601 15.6184L15.6601 9.72343L17.8421 11.9054C18.1772 12.2407 18.5752 12.5067 19.0131 12.6882C19.4511 12.8696 19.9205 12.963 20.3946 12.963C20.8687 12.963 21.3381 12.8696 21.7761 12.6882C22.214 12.5067 22.612 12.2407 22.9471 11.9054C23.2825 11.5703 23.5486 11.1724 23.7301 10.7345C23.9117 10.2965 24.0051 9.82704 24.0051 9.35293C24.0051 8.87882 23.9117 8.40936 23.7301 7.97138C23.5486 7.53341 23.2825 7.13551 22.9471 6.80043H22.9421ZM11.0001 20.3534C11.0005 20.5649 10.959 20.7743 10.878 20.9697C10.797 21.165 10.6781 21.3423 10.5281 21.4914C10.2216 21.7846 9.81378 21.9483 9.3896 21.9483C8.96543 21.9483 8.55761 21.7846 8.2511 21.4914L2.4721 15.7124C2.17015 15.4105 2.00052 15.0009 2.00052 14.5739C2.00052 14.1469 2.17015 13.7374 2.4721 13.4354C2.77405 13.1335 3.18358 12.9638 3.6106 12.9638C4.03762 12.9638 4.44715 13.1335 4.7491 13.4354L10.5281 19.2144C10.6782 19.3636 10.7972 19.5411 10.8782 19.7366C10.9592 19.9322 11.0007 20.1418 11.0001 20.3534ZM21.5281 10.4914C21.2216 10.7846 20.8138 10.9483 20.3896 10.9483C19.9654 10.9483 19.5576 10.7846 19.2511 10.4914L13.4721 4.71243C13.3226 4.56292 13.204 4.38542 13.1231 4.19008C13.0422 3.99474 13.0005 3.78537 13.0005 3.57393C13.0005 3.14691 13.1702 2.73738 13.4721 2.43543C13.7741 2.13348 14.1836 1.96385 14.6106 1.96385C15.0376 1.96385 15.4472 2.13348 15.7491 2.43543L21.5281 8.21443C21.6777 8.36387 21.7965 8.54134 21.8774 8.73669C21.9584 8.93204 22.0001 9.14145 22.0001 9.35293C22.0001 9.56441 21.9584 9.77381 21.8774 9.96917C21.7965 10.1645 21.6777 10.342 21.5281 10.4914V10.4914Z" fill="#374957"/>
</svg>
