<svg width="24" height="24" viewBox="0 0 24 24" fill="none" xmlns="http://www.w3.org/2000/svg">
<path d="M24.0001 11.9831C23.9979 11.169 23.7471 10.375 23.2812 9.70751C22.8152 9.03998 22.1565 8.53076 21.3931 8.24806L21.3551 8.15706C20.363 5.7305 18.4638 3.78644 16.0611 2.73806L15.7321 2.59406C15.4488 1.83298 14.9396 1.17672 14.2727 0.71333C13.6058 0.249941 12.8131 0.00158691 12.0011 0.00158691C11.189 0.00158691 10.3963 0.249941 9.72942 0.71333C9.06253 1.17672 8.5533 1.83298 8.27005 2.59406L7.85205 2.78206C5.4706 3.86371 3.59626 5.81969 2.61705 8.24506C1.8524 8.52366 1.19153 9.02997 0.723506 9.69575C0.255485 10.3615 0.00281307 11.1548 -0.000456152 11.9686C-0.00372538 12.7824 0.242565 13.5777 0.705222 14.2472C1.16788 14.9167 1.82466 15.4283 2.58705 15.7131L2.71505 16.0131C3.7184 18.342 5.5611 20.2082 7.87705 21.2411L8.27005 21.4171C8.5541 22.1771 9.06352 22.8322 9.73013 23.2947C10.3967 23.7572 11.1887 24.005 12.0001 24.005C12.8114 24.005 13.6034 23.7572 14.27 23.2947C14.9366 22.8322 15.446 22.1771 15.7301 21.4171L16.0971 21.2541C18.5196 20.1708 20.4242 18.1855 21.4061 15.7201C22.1669 15.4344 22.8226 14.9238 23.286 14.2562C23.7494 13.5886 23.9985 12.7957 24.0001 11.9831ZM12.0001 2.00006C12.3956 2.00006 12.7823 2.11736 13.1112 2.33712C13.4401 2.55689 13.6964 2.86924 13.8478 3.2347C13.9992 3.60015 14.0388 4.00228 13.9616 4.39024C13.8845 4.77821 13.694 5.13457 13.4143 5.41428C13.1346 5.69398 12.7782 5.88446 12.3902 5.96163C12.0023 6.0388 11.6001 5.9992 11.2347 5.84782C10.8692 5.69645 10.5569 5.4401 10.3371 5.1112C10.1174 4.7823 10.0001 4.39563 10.0001 4.00006C10.0001 3.46963 10.2108 2.96092 10.5858 2.58585C10.9609 2.21078 11.4696 2.00006 12.0001 2.00006ZM3.98805 9.98506L4.07005 10.0161L4.08005 9.99106C4.58115 10.0359 5.04439 10.2764 5.36934 10.6605C5.69429 11.0446 5.85476 11.5413 5.81597 12.0429C5.77718 12.5445 5.54225 13.0106 5.16211 13.3401C4.78197 13.6697 4.28726 13.8361 3.78523 13.8034C3.28319 13.7707 2.81429 13.5414 2.48018 13.1652C2.14607 12.7891 1.97366 12.2964 2.00035 11.794C2.02704 11.2916 2.25066 10.82 2.62274 10.4814C2.99482 10.1428 3.48538 9.96444 3.98805 9.98506V9.98506ZM12.0001 22.0001C11.6045 22.0001 11.2178 21.8828 10.8889 21.663C10.56 21.4432 10.3037 21.1309 10.1523 20.7654C10.0009 20.4 9.96131 19.9978 10.0385 19.6099C10.1157 19.2219 10.3061 18.8656 10.5858 18.5859C10.8655 18.3061 11.2219 18.1157 11.6099 18.0385C11.9978 17.9613 12.4 18.0009 12.7654 18.1523C13.1309 18.3037 13.4432 18.56 13.663 18.8889C13.8828 19.2178 14.0001 19.6045 14.0001 20.0001C14.0001 20.5305 13.7893 21.0392 13.4143 21.4143C13.0392 21.7894 12.5305 22.0001 12.0001 22.0001ZM15.8931 19.1141C15.694 18.2301 15.2 17.4402 14.4924 16.8742C13.7848 16.3082 12.9057 15.9998 11.9996 15.9998C11.0934 15.9998 10.2143 16.3082 9.50668 16.8742C8.79907 17.4402 8.30512 18.2301 8.10605 19.1141C6.74065 18.369 5.61889 17.2462 4.87505 15.8801C5.75627 15.681 6.54385 15.1888 7.10903 14.484C7.67421 13.7792 7.98355 12.9034 7.98645 12C7.98935 11.0966 7.68565 10.2189 7.12501 9.5105C6.56438 8.80208 5.77997 8.30483 4.90005 8.10006C5.64663 6.7532 6.7578 5.64411 8.10605 4.90006C8.30595 5.78306 8.80013 6.57185 9.50745 7.13695C10.2148 7.70204 11.0932 8.00986 11.9986 8.00986C12.9039 8.00986 13.7823 7.70204 14.4897 7.13695C15.197 6.57185 15.6912 5.78306 15.8911 4.90006C17.2383 5.64329 18.3501 6.74952 19.1001 8.09306C18.2174 8.29466 17.4296 8.79035 16.8659 9.49876C16.3021 10.2072 15.996 11.0862 15.9977 11.9916C15.9995 12.8969 16.309 13.7747 16.8755 14.481C17.4419 15.1872 18.2317 15.6799 19.1151 15.8781C18.3688 17.2398 17.2516 18.3619 15.8931 19.1141ZM20.0001 13.9831C19.6045 13.9831 19.2178 13.8658 18.8889 13.646C18.56 13.4262 18.3037 13.1139 18.1523 12.7484C18.0009 12.383 17.9613 11.9808 18.0385 11.5929C18.1157 11.2049 18.3061 10.8486 18.5858 10.5689C18.8655 10.2891 19.2219 10.0987 19.6099 10.0215C19.9978 9.94432 20.4 9.98393 20.7654 10.1353C21.1309 10.2867 21.4432 10.543 21.663 10.8719C21.8828 11.2008 22.0001 11.5875 22.0001 11.9831C22.0001 12.5135 21.7893 13.0222 21.4143 13.3973C21.0392 13.7724 20.5305 13.9831 20.0001 13.9831Z" fill="#374957"/>
</svg>
