<svg width="20" height="20" viewBox="0 0 20 20" fill="none" xmlns="http://www.w3.org/2000/svg">
<path d="M19.224 13.9294C19.064 13.6594 18.614 13.2394 17.494 13.4394C16.874 13.5494 16.244 13.5994 15.614 13.5694C13.284 13.4694 11.174 12.3994 9.70404 10.7494C8.40404 9.29938 7.60404 7.40938 7.59404 5.36938C7.59404 4.22938 7.81404 3.12938 8.26404 2.08938C8.70404 1.07938 8.39404 0.549384 8.17404 0.329384C7.94404 0.099384 7.40404 -0.220616 6.34404 0.219384C2.25404 1.93938 -0.275956 6.03938 0.0240442 10.4294C0.324044 14.5594 3.22404 18.0894 7.06404 19.4194C7.98404 19.7394 8.95404 19.9294 9.95404 19.9694C10.114 19.9794 10.274 19.9894 10.434 19.9894C13.784 19.9894 16.924 18.4094 18.904 15.7194C19.574 14.7894 19.394 14.1994 19.224 13.9294Z" fill="#2D2D2D"/>
</svg>
