<svg width="24" height="25" viewBox="0 0 24 25" fill="none" xmlns="http://www.w3.org/2000/svg">
<path d="M17.2459 7.19301C18.2398 6.10476 18.8499 4.72086 18.9829 3.25301C19.0214 2.95033 18.9902 2.64284 18.8916 2.35408C18.793 2.06532 18.6297 1.80295 18.414 1.58705C18.1984 1.37115 17.9363 1.20744 17.6477 1.10846C17.359 1.00948 17.0516 0.977857 16.7489 1.016C15.8384 1.0875 14.9543 1.35553 14.1574 1.80163C13.3605 2.24772 12.6698 2.86127 12.1329 3.60001C11.7929 2.74937 11.3122 1.96204 10.7109 1.271C10.5243 1.08603 10.2724 0.98193 10.0096 0.981205C9.74687 0.98048 9.4944 1.08319 9.30678 1.26713C9.11917 1.45107 9.01148 1.70146 9.007 1.96416C9.00252 2.22687 9.10162 2.48078 9.28286 2.671C10.2742 3.90543 10.8543 5.4192 10.9419 7.00001H8.49986C6.18076 7.07088 3.98422 8.05774 2.39113 9.74455C0.798036 11.4314 -0.0618024 13.6807 -0.000142817 16C-0.161143 21.6 5.64386 26.773 10.7499 24.385C11.1398 24.1371 11.5931 24.007 12.0552 24.0103C12.5173 24.0137 12.9686 24.1504 13.3549 24.404C14.0077 24.7815 14.7459 24.9866 15.4999 25C25.7639 24.716 27.0659 9.58201 17.2459 7.19301ZM14.2229 4.16801C14.9985 3.4897 15.9725 3.08004 16.9999 3V3C16.9179 4.02517 16.5088 4.99689 15.8329 5.77201C15.0565 6.44989 14.0824 6.85948 13.0549 6.94001C13.1361 5.91448 13.5457 4.94243 14.2229 4.16801V4.16801ZM15.4999 23C15.0592 22.9831 14.6305 22.8518 14.2559 22.619C13.5694 22.2226 12.7925 22.0094 11.9999 22C11.2494 22.0175 10.515 22.2212 9.86286 22.593C6.00486 24.261 1.89986 20.141 1.99986 16C1.93819 14.211 2.58733 12.4704 3.80536 11.1587C5.02339 9.84697 6.71122 9.07085 8.49986 9.00001H15.4999C24.0999 9.32101 24.0999 22.682 15.4999 23Z" fill="#374957"/>
</svg>
