<svg width="24" height="20" viewBox="0 0 24 20" fill="none" xmlns="http://www.w3.org/2000/svg">
<path d="M19 4.00006H13C12.0868 4.00341 11.1921 4.25743 10.4134 4.73443C9.63465 5.21142 9.00186 5.89308 8.584 6.70506C7.9844 6.24985 7.25282 6.00236 6.5 6.00006C5.57174 6.00006 4.6815 6.36881 4.02513 7.02519C3.36875 7.68157 3 8.5718 3 9.50006C3.00293 10.0201 3.12289 10.5327 3.351 11.0001H2V1.00006C2 0.734845 1.89464 0.480491 1.70711 0.292954C1.51957 0.105418 1.26522 6.10352e-05 1 6.10352e-05C0.734784 6.10352e-05 0.48043 0.105418 0.292893 0.292954C0.105357 0.480491 0 0.734845 0 1.00006L0 19.0001C0 19.2653 0.105357 19.5196 0.292893 19.7072C0.48043 19.8947 0.734784 20.0001 1 20.0001C1.26522 20.0001 1.51957 19.8947 1.70711 19.7072C1.89464 19.5196 2 19.2653 2 19.0001V17.0001H22V19.0001C22 19.2653 22.1054 19.5196 22.2929 19.7072C22.4804 19.8947 22.7348 20.0001 23 20.0001C23.2652 20.0001 23.5196 19.8947 23.7071 19.7072C23.8946 19.5196 24 19.2653 24 19.0001V9.00006C23.9984 7.67447 23.4711 6.40362 22.5338 5.46628C21.5964 4.52894 20.3256 4.00165 19 4.00006V4.00006ZM10 9.00006C10 8.20441 10.3161 7.44135 10.8787 6.87874C11.4413 6.31613 12.2044 6.00006 13 6.00006H19C19.7956 6.00006 20.5587 6.31613 21.1213 6.87874C21.6839 7.44135 22 8.20441 22 9.00006V11.0001H10V9.00006ZM5 9.50006C5 9.20339 5.08797 8.91338 5.2528 8.66671C5.41762 8.42003 5.65189 8.22777 5.92597 8.11424C6.20006 8.00071 6.50166 7.97101 6.79264 8.02888C7.08361 8.08676 7.35088 8.22962 7.56066 8.4394C7.77044 8.64918 7.9133 8.91645 7.97118 9.20743C8.02906 9.4984 7.99935 9.8 7.88582 10.0741C7.77229 10.3482 7.58003 10.5824 7.33336 10.7473C7.08668 10.9121 6.79667 11.0001 6.5 11.0001C6.10218 11.0001 5.72064 10.842 5.43934 10.5607C5.15804 10.2794 5 9.89789 5 9.50006ZM2 15.0001V13.0001H22V15.0001H2Z" fill="#374957"/>
</svg>
