<svg width="17" height="16" viewBox="0 0 17 16" fill="none" xmlns="http://www.w3.org/2000/svg">
<path d="M9.64507 1.72126L11.0096 4.45042C11.1957 4.83033 11.6919 5.19474 12.1106 5.26452L14.5839 5.67544C16.1656 5.93905 16.5378 7.08654 15.398 8.21852L13.4752 10.1413C13.1496 10.467 12.9712 11.095 13.072 11.5447L13.6225 13.925C14.0567 15.809 13.0565 16.5378 11.3896 15.5532L9.07132 14.1808C8.65264 13.9327 7.9626 13.9327 7.53617 14.1808L5.21793 15.5532C3.55872 16.5378 2.55079 15.8013 2.98498 13.925L3.53546 11.5447C3.63626 11.095 3.45793 10.467 3.13229 10.1413L1.20947 8.21852C0.0774903 7.08654 0.441896 5.93905 2.02357 5.67544L4.49687 5.26452C4.9078 5.19474 5.40401 4.83033 5.59009 4.45042L6.95467 1.72126C7.69899 0.240375 8.9085 0.240375 9.64507 1.72126Z" fill="#2D2D2D"/>
</svg>
