<svg width="18" height="17" viewBox="0 0 18 17" fill="none" xmlns="http://www.w3.org/2000/svg">
<path d="M10.0938 2.11066L11.4584 4.83982C11.6445 5.21974 12.1407 5.58414 12.5593 5.65392L15.0327 6.06485C16.6143 6.32846 16.9865 7.47595 15.8467 8.60793L13.9239 10.5307C13.5983 10.8564 13.42 11.4844 13.5208 11.9341L14.0712 14.3144C14.5054 16.1984 13.5053 16.9272 11.8383 15.9426L9.52005 14.5702C9.10137 14.3221 8.41133 14.3221 7.9849 14.5702L5.66666 15.9426C4.00745 16.9272 2.99952 16.1907 3.43371 14.3144L3.98419 11.9341C4.08499 11.4844 3.90666 10.8564 3.58102 10.5307L1.6582 8.60793C0.526221 7.47595 0.890626 6.32846 2.4723 6.06485L4.9456 5.65392C5.35653 5.58414 5.85274 5.21974 6.03882 4.83982L7.4034 2.11066C8.14772 0.62978 9.35723 0.62978 10.0938 2.11066Z" stroke="#2D2D2D" stroke-width="1.163" stroke-linecap="round" stroke-linejoin="round"/>
</svg>
